<svg xmlns="http://www.w3.org/2000/svg" xmlns:xlink="http://www.w3.org/1999/xlink" width="1080" zoomAndPan="magnify" viewBox="0 0 810 809.999993" height="1080" preserveAspectRatio="xMidYMid meet" version="1.0"><defs><g/></defs><path fill="#052d62" d="M 81.582031 406.066406 L 728.40625 406.066406 C 737.058594 406.066406 744.074219 413.082031 744.074219 421.734375 L 744.074219 453.066406 C 744.074219 461.71875 737.058594 468.734375 728.40625 468.734375 L 81.582031 468.734375 C 72.929688 468.734375 65.917969 461.71875 65.917969 453.066406 L 65.917969 421.734375 C 65.917969 413.082031 72.929688 406.066406 81.582031 406.066406 Z M 81.582031 406.066406 " fill-opacity="1" fill-rule="nonzero"/><g fill="#ffffff" fill-opacity="1"><g transform="translate(85.754124, 449.804432)"><g><path d="M 3.875 1.3125 C 3.300781 1.394531 2.8125 1.289062 2.40625 1 C 2 0.71875 1.675781 0.335938 1.4375 -0.140625 C 1.226562 -0.585938 1.097656 -1.066406 1.046875 -1.578125 C 1.003906 -2.085938 0.984375 -2.597656 0.984375 -3.109375 C 0.835938 -7.066406 0.832031 -11.023438 0.96875 -14.984375 C 1.101562 -18.953125 1.21875 -22.929688 1.3125 -26.921875 C 1.3125 -27.546875 1.421875 -28.097656 1.640625 -28.578125 C 1.867188 -29.066406 2.28125 -29.414062 2.875 -29.625 C 3.65625 -29.832031 4.289062 -29.769531 4.78125 -29.4375 C 5.28125 -29.101562 5.726562 -28.6875 6.125 -28.1875 C 7.71875 -26.019531 9.320312 -23.835938 10.9375 -21.640625 C 12.5625 -19.453125 14.164062 -17.265625 15.75 -15.078125 C 16.382812 -14.179688 17.09375 -13.332031 17.875 -12.53125 C 18.65625 -11.738281 19.691406 -10.953125 20.984375 -10.171875 C 21.066406 -13.203125 21.140625 -16.101562 21.203125 -18.875 C 21.265625 -21.65625 21.320312 -24.367188 21.375 -27.015625 C 21.4375 -27.609375 21.457031 -28.179688 21.4375 -28.734375 C 21.425781 -29.296875 21.484375 -29.863281 21.609375 -30.4375 C 21.753906 -31.03125 22.019531 -31.519531 22.40625 -31.90625 C 22.800781 -32.300781 23.332031 -32.5 24 -32.5 C 24.75 -32.5 25.320312 -32.28125 25.71875 -31.84375 C 26.125 -31.414062 26.34375 -30.835938 26.375 -30.109375 C 26.375 -28.285156 26.390625 -26.457031 26.421875 -24.625 C 26.453125 -22.789062 26.394531 -20.945312 26.25 -19.09375 C 26.03125 -16.894531 25.90625 -14.703125 25.875 -12.515625 C 25.851562 -10.328125 25.976562 -8.132812 26.25 -5.9375 C 26.300781 -5.28125 26.328125 -4.644531 26.328125 -4.03125 C 26.328125 -3.414062 26.300781 -2.773438 26.25 -2.109375 C 26.21875 -1.578125 26.054688 -1.109375 25.765625 -0.703125 C 25.484375 -0.296875 25.054688 -0.015625 24.484375 0.140625 C 23.222656 0.523438 22.25 0.175781 21.5625 -0.90625 C 20.363281 -2.726562 19 -4.421875 17.46875 -5.984375 C 15.9375 -7.546875 14.421875 -9.117188 12.921875 -10.703125 C 11.421875 -12.296875 10.113281 -14.054688 9 -15.984375 C 8.695312 -16.460938 8.375 -16.925781 8.03125 -17.375 C 7.6875 -17.820312 7.257812 -18.179688 6.75 -18.453125 C 6.175781 -18.179688 5.910156 -17.820312 5.953125 -17.375 C 6.003906 -16.925781 6.015625 -16.503906 5.984375 -16.109375 L 5.984375 -2.84375 C 5.984375 -2.476562 5.984375 -2.109375 5.984375 -1.734375 C 5.984375 -1.359375 5.953125 -0.988281 5.890625 -0.625 C 5.710938 0.570312 5.039062 1.21875 3.875 1.3125 Z M 3.875 1.3125 "/></g></g></g><g fill="#ffffff" fill-opacity="1"><g transform="translate(116.72634, 449.804432)"><g><path d="M 18.328125 2.15625 C 16.847656 2.632812 15.828125 2.15625 15.265625 0.71875 C 15.023438 0.175781 14.71875 -0.09375 14.34375 -0.09375 C 13.96875 -0.09375 13.523438 -0.046875 13.015625 0.046875 C 9.648438 0.828125 7.054688 0.617188 5.234375 -0.578125 C 3.421875 -1.785156 2.140625 -4.097656 1.390625 -7.515625 C 1.117188 -8.867188 0.96875 -10.242188 0.9375 -11.640625 C 0.914062 -13.035156 0.921875 -14.421875 0.953125 -15.796875 C 1.003906 -16.578125 1.203125 -17.226562 1.546875 -17.75 C 1.898438 -18.28125 2.492188 -18.601562 3.328125 -18.71875 C 4.046875 -18.78125 4.648438 -18.535156 5.140625 -17.984375 C 5.640625 -17.429688 5.890625 -16.628906 5.890625 -15.578125 C 5.921875 -14.109375 5.9375 -12.613281 5.9375 -11.09375 C 5.9375 -9.582031 6.222656 -8.09375 6.796875 -6.625 C 7.003906 -5.988281 7.300781 -5.457031 7.6875 -5.03125 C 8.082031 -4.613281 8.65625 -4.390625 9.40625 -4.359375 C 10.1875 -4.335938 10.867188 -4.4375 11.453125 -4.65625 C 12.035156 -4.882812 12.554688 -5.3125 13.015625 -5.9375 C 13.523438 -6.6875 13.851562 -7.5 14 -8.375 C 14.0625 -9.269531 14.144531 -10.160156 14.25 -11.046875 C 14.351562 -11.929688 14.453125 -12.8125 14.546875 -13.6875 C 14.597656 -14.3125 14.625 -14.9375 14.625 -15.5625 C 14.625 -16.195312 14.6875 -16.816406 14.8125 -17.421875 C 14.894531 -18.109375 15.160156 -18.660156 15.609375 -19.078125 C 16.066406 -19.503906 16.671875 -19.6875 17.421875 -19.625 C 18.171875 -19.59375 18.722656 -19.359375 19.078125 -18.921875 C 19.441406 -18.492188 19.671875 -17.921875 19.765625 -17.203125 C 19.796875 -16.898438 19.8125 -16.582031 19.8125 -16.25 C 19.8125 -15.914062 19.8125 -15.585938 19.8125 -15.265625 L 19.8125 -8.46875 L 19.859375 -8.46875 C 19.859375 -7.207031 19.847656 -5.945312 19.828125 -4.6875 C 19.816406 -3.425781 19.828125 -2.148438 19.859375 -0.859375 C 19.859375 -0.222656 19.789062 0.382812 19.65625 0.96875 C 19.519531 1.550781 19.078125 1.945312 18.328125 2.15625 Z M 18.328125 2.15625 "/></g></g></g><g fill="#ffffff" fill-opacity="1"><g transform="translate(141.126293, 449.804432)"><g><path d="M 3.828125 2.25 C 3.222656 2.25 2.703125 2.050781 2.265625 1.65625 C 1.835938 1.269531 1.578125 0.78125 1.484375 0.1875 C 1.367188 -0.75 1.300781 -1.695312 1.28125 -2.65625 C 1.269531 -3.613281 1.234375 -4.554688 1.171875 -5.484375 C 1.171875 -6.453125 1.132812 -7.429688 1.0625 -8.421875 C 0.988281 -9.410156 0.953125 -10.398438 0.953125 -11.390625 C 0.953125 -12.617188 0.9375 -13.578125 0.90625 -14.265625 C 0.875 -14.960938 0.878906 -15.570312 0.921875 -16.09375 C 0.960938 -16.613281 1.078125 -17.222656 1.265625 -17.921875 C 1.378906 -18.398438 1.660156 -18.78125 2.109375 -19.0625 C 2.566406 -19.34375 3.054688 -19.5 3.578125 -19.53125 C 4.097656 -19.5625 4.539062 -19.425781 4.90625 -19.125 C 5.6875 -18.46875 6.425781 -18.171875 7.125 -18.234375 C 7.832031 -18.296875 8.578125 -18.503906 9.359375 -18.859375 C 10.140625 -19.191406 10.867188 -19.316406 11.546875 -19.234375 C 12.222656 -19.160156 12.769531 -18.691406 13.1875 -17.828125 C 13.851562 -16.390625 13.085938 -15.1875 10.890625 -14.21875 C 10.617188 -14.070312 10.347656 -13.945312 10.078125 -13.84375 C 9.804688 -13.738281 9.507812 -13.609375 9.1875 -13.453125 C 8.25 -13.066406 7.519531 -12.550781 7 -11.90625 C 6.476562 -11.257812 6.257812 -10.351562 6.34375 -9.1875 C 6.4375 -8.007812 6.453125 -6.820312 6.390625 -5.625 C 6.328125 -4.425781 6.28125 -3.226562 6.25 -2.03125 C 6.25 -1.726562 6.265625 -1.414062 6.296875 -1.09375 C 6.328125 -0.78125 6.3125 -0.460938 6.25 -0.140625 C 6.164062 1.359375 5.359375 2.15625 3.828125 2.25 Z M 3.828125 2.25 "/></g></g></g><g fill="#ffffff" fill-opacity="1"><g transform="translate(159.088997, 449.804432)"><g><path d="M 11.703125 1.078125 C 10.265625 1.015625 9.039062 0.53125 8.03125 -0.375 C 7.03125 -1.289062 6.410156 -2.578125 6.171875 -4.234375 C 6.046875 -5.398438 5.972656 -6.59375 5.953125 -7.8125 C 5.941406 -9.03125 5.9375 -10.238281 5.9375 -11.4375 C 5.9375 -12.007812 5.890625 -12.539062 5.796875 -13.03125 C 5.710938 -13.53125 5.5 -13.921875 5.15625 -14.203125 C 4.8125 -14.484375 4.21875 -14.582031 3.375 -14.5 C 2.65625 -14.46875 2.070312 -14.65625 1.625 -15.0625 C 1.175781 -15.46875 0.9375 -16.03125 0.90625 -16.75 C 0.875 -17.53125 1.082031 -18.128906 1.53125 -18.546875 C 1.976562 -18.960938 2.535156 -19.203125 3.203125 -19.265625 C 4.273438 -19.328125 5.015625 -19.628906 5.421875 -20.171875 C 5.828125 -20.710938 6 -21.460938 5.9375 -22.421875 C 5.90625 -22.742188 5.910156 -23.0625 5.953125 -23.375 C 6.003906 -23.695312 6.0625 -24.007812 6.125 -24.3125 C 6.507812 -25.570312 7.394531 -26.125 8.78125 -25.96875 C 9.945312 -25.882812 10.578125 -25.210938 10.671875 -23.953125 C 10.753906 -23.472656 10.753906 -22.976562 10.671875 -22.46875 C 10.546875 -21.59375 10.65625 -20.953125 11 -20.546875 C 11.351562 -20.140625 12.007812 -20 12.96875 -20.125 C 13.65625 -20.1875 14.242188 -20.015625 14.734375 -19.609375 C 15.234375 -19.203125 15.5 -18.640625 15.53125 -17.921875 C 15.59375 -17.171875 15.410156 -16.546875 14.984375 -16.046875 C 14.566406 -15.554688 14.015625 -15.3125 13.328125 -15.3125 C 12.066406 -15.28125 11.285156 -14.929688 10.984375 -14.265625 C 10.679688 -13.609375 10.578125 -12.785156 10.671875 -11.796875 C 10.753906 -10.867188 10.828125 -9.929688 10.890625 -8.984375 C 10.953125 -8.035156 11 -7.082031 11.03125 -6.125 C 11.0625 -5.550781 11.1875 -5.046875 11.40625 -4.609375 C 11.632812 -4.179688 12.15625 -3.96875 12.96875 -3.96875 C 13.78125 -3.988281 14.414062 -3.765625 14.875 -3.296875 C 15.34375 -2.835938 15.53125 -2.203125 15.4375 -1.390625 C 15.351562 -0.554688 15.015625 0.0234375 14.421875 0.359375 C 13.835938 0.691406 13.171875 0.929688 12.421875 1.078125 Z M 11.703125 1.078125 "/></g></g></g><g fill="#ffffff" fill-opacity="1"><g transform="translate(179.167449, 449.804432)"><g><path d="M 18.328125 2.15625 C 16.847656 2.632812 15.828125 2.15625 15.265625 0.71875 C 15.023438 0.175781 14.71875 -0.09375 14.34375 -0.09375 C 13.96875 -0.09375 13.523438 -0.046875 13.015625 0.046875 C 9.648438 0.828125 7.054688 0.617188 5.234375 -0.578125 C 3.421875 -1.785156 2.140625 -4.097656 1.390625 -7.515625 C 1.117188 -8.867188 0.96875 -10.242188 0.9375 -11.640625 C 0.914062 -13.035156 0.921875 -14.421875 0.953125 -15.796875 C 1.003906 -16.578125 1.203125 -17.226562 1.546875 -17.75 C 1.898438 -18.28125 2.492188 -18.601562 3.328125 -18.71875 C 4.046875 -18.78125 4.648438 -18.535156 5.140625 -17.984375 C 5.640625 -17.429688 5.890625 -16.628906 5.890625 -15.578125 C 5.921875 -14.109375 5.9375 -12.613281 5.9375 -11.09375 C 5.9375 -9.582031 6.222656 -8.09375 6.796875 -6.625 C 7.003906 -5.988281 7.300781 -5.457031 7.6875 -5.03125 C 8.082031 -4.613281 8.65625 -4.390625 9.40625 -4.359375 C 10.1875 -4.335938 10.867188 -4.4375 11.453125 -4.65625 C 12.035156 -4.882812 12.554688 -5.3125 13.015625 -5.9375 C 13.523438 -6.6875 13.851562 -7.5 14 -8.375 C 14.0625 -9.269531 14.144531 -10.160156 14.25 -11.046875 C 14.351562 -11.929688 14.453125 -12.8125 14.546875 -13.6875 C 14.597656 -14.3125 14.625 -14.9375 14.625 -15.5625 C 14.625 -16.195312 14.6875 -16.816406 14.8125 -17.421875 C 14.894531 -18.109375 15.160156 -18.660156 15.609375 -19.078125 C 16.066406 -19.503906 16.671875 -19.6875 17.421875 -19.625 C 18.171875 -19.59375 18.722656 -19.359375 19.078125 -18.921875 C 19.441406 -18.492188 19.671875 -17.921875 19.765625 -17.203125 C 19.796875 -16.898438 19.8125 -16.582031 19.8125 -16.25 C 19.8125 -15.914062 19.8125 -15.585938 19.8125 -15.265625 L 19.8125 -8.46875 L 19.859375 -8.46875 C 19.859375 -7.207031 19.847656 -5.945312 19.828125 -4.6875 C 19.816406 -3.425781 19.828125 -2.148438 19.859375 -0.859375 C 19.859375 -0.222656 19.789062 0.382812 19.65625 0.96875 C 19.519531 1.550781 19.078125 1.945312 18.328125 2.15625 Z M 18.328125 2.15625 "/></g></g></g><g fill="#ffffff" fill-opacity="1"><g transform="translate(203.567399, 449.804432)"><g><path d="M 3.828125 2.25 C 3.222656 2.25 2.703125 2.050781 2.265625 1.65625 C 1.835938 1.269531 1.578125 0.78125 1.484375 0.1875 C 1.367188 -0.75 1.300781 -1.695312 1.28125 -2.65625 C 1.269531 -3.613281 1.234375 -4.554688 1.171875 -5.484375 C 1.171875 -6.453125 1.132812 -7.429688 1.0625 -8.421875 C 0.988281 -9.410156 0.953125 -10.398438 0.953125 -11.390625 C 0.953125 -12.617188 0.9375 -13.578125 0.90625 -14.265625 C 0.875 -14.960938 0.878906 -15.570312 0.921875 -16.09375 C 0.960938 -16.613281 1.078125 -17.222656 1.265625 -17.921875 C 1.378906 -18.398438 1.660156 -18.78125 2.109375 -19.0625 C 2.566406 -19.34375 3.054688 -19.5 3.578125 -19.53125 C 4.097656 -19.5625 4.539062 -19.425781 4.90625 -19.125 C 5.6875 -18.46875 6.425781 -18.171875 7.125 -18.234375 C 7.832031 -18.296875 8.578125 -18.503906 9.359375 -18.859375 C 10.140625 -19.191406 10.867188 -19.316406 11.546875 -19.234375 C 12.222656 -19.160156 12.769531 -18.691406 13.1875 -17.828125 C 13.851562 -16.390625 13.085938 -15.1875 10.890625 -14.21875 C 10.617188 -14.070312 10.347656 -13.945312 10.078125 -13.84375 C 9.804688 -13.738281 9.507812 -13.609375 9.1875 -13.453125 C 8.25 -13.066406 7.519531 -12.550781 7 -11.90625 C 6.476562 -11.257812 6.257812 -10.351562 6.34375 -9.1875 C 6.4375 -8.007812 6.453125 -6.820312 6.390625 -5.625 C 6.328125 -4.425781 6.28125 -3.226562 6.25 -2.03125 C 6.25 -1.726562 6.265625 -1.414062 6.296875 -1.09375 C 6.328125 -0.78125 6.3125 -0.460938 6.25 -0.140625 C 6.164062 1.359375 5.359375 2.15625 3.828125 2.25 Z M 3.828125 2.25 "/></g></g></g><g fill="#ffffff" fill-opacity="1"><g transform="translate(221.530097, 449.804432)"><g><path d="M 4.765625 2.203125 C 4.046875 2.359375 3.4375 2.1875 2.9375 1.6875 C 2.445312 1.195312 2.097656 0.441406 1.890625 -0.578125 C 1.679688 -1.691406 1.566406 -2.8125 1.546875 -3.9375 C 1.535156 -5.0625 1.53125 -6.179688 1.53125 -7.296875 C 1.53125 -9.066406 1.53125 -10.835938 1.53125 -12.609375 C 1.53125 -14.378906 1.546875 -16.132812 1.578125 -17.875 C 1.578125 -18.65625 1.800781 -19.285156 2.25 -19.765625 C 2.695312 -20.242188 3.328125 -20.46875 4.140625 -20.4375 C 4.921875 -20.40625 5.5 -20.15625 5.875 -19.6875 C 6.25 -19.226562 6.453125 -18.65625 6.484375 -17.96875 C 6.515625 -16.457031 6.519531 -14.9375 6.5 -13.40625 C 6.488281 -11.882812 6.484375 -10.375 6.484375 -8.875 L 6.65625 -8.875 C 6.65625 -7.582031 6.648438 -6.273438 6.640625 -4.953125 C 6.628906 -3.628906 6.632812 -2.304688 6.65625 -0.984375 C 6.6875 -0.234375 6.582031 0.4375 6.34375 1.03125 C 6.101562 1.632812 5.578125 2.023438 4.765625 2.203125 Z M 0.90625 -25.75 C 0.90625 -26.320312 1.0625 -26.882812 1.375 -27.4375 C 1.6875 -27.988281 2.085938 -28.453125 2.578125 -28.828125 C 3.078125 -29.203125 3.566406 -29.390625 4.046875 -29.390625 C 4.796875 -29.359375 5.441406 -29.039062 5.984375 -28.4375 C 6.523438 -27.84375 6.765625 -27.140625 6.703125 -26.328125 C 6.703125 -25.492188 6.410156 -24.773438 5.828125 -24.171875 C 5.242188 -23.566406 4.515625 -23.265625 3.640625 -23.265625 C 2.890625 -23.242188 2.242188 -23.476562 1.703125 -23.96875 C 1.171875 -24.46875 0.90625 -25.0625 0.90625 -25.75 Z M 0.90625 -25.75 "/></g></g></g><g fill="#ffffff" fill-opacity="1"><g transform="translate(232.785471, 449.804432)"><g><path d="M 18.140625 2.078125 C 17.296875 1.953125 16.71875 1.617188 16.40625 1.078125 C 16.09375 0.535156 15.90625 -0.125 15.84375 -0.90625 C 15.695312 -2.882812 15.5625 -4.835938 15.4375 -6.765625 C 15.320312 -8.703125 15.144531 -10.632812 14.90625 -12.5625 C 14.84375 -13.039062 14.78125 -13.554688 14.71875 -14.109375 C 14.65625 -14.660156 14.503906 -15.144531 14.265625 -15.5625 C 14.023438 -15.988281 13.609375 -16.21875 13.015625 -16.25 C 12.109375 -16.375 11.203125 -16.25 10.296875 -15.875 C 9.398438 -15.5 8.65625 -14.890625 8.0625 -14.046875 C 7.488281 -13.328125 7.070312 -12.566406 6.8125 -11.765625 C 6.5625 -10.972656 6.5 -10.113281 6.625 -9.1875 C 6.738281 -7.976562 6.816406 -6.773438 6.859375 -5.578125 C 6.910156 -4.378906 6.976562 -3.195312 7.0625 -2.03125 C 7.09375 -1.488281 7.085938 -0.976562 7.046875 -0.5 C 7.003906 -0.0195312 6.769531 0.414062 6.34375 0.8125 C 5.832031 1.351562 5.203125 1.582031 4.453125 1.5 C 3.703125 1.425781 3.148438 1.0625 2.796875 0.40625 C 2.640625 0.0703125 2.53125 -0.28125 2.46875 -0.65625 C 2.414062 -1.03125 2.359375 -1.394531 2.296875 -1.75 C 2.054688 -4.664062 1.820312 -7.5625 1.59375 -10.4375 C 1.375 -13.320312 1.160156 -16.207031 0.953125 -19.09375 C 0.921875 -19.476562 0.910156 -19.875 0.921875 -20.28125 C 0.941406 -20.6875 0.960938 -21.066406 0.984375 -21.421875 C 1.140625 -22.597656 1.816406 -23.226562 3.015625 -23.3125 C 4.097656 -23.46875 4.910156 -23.035156 5.453125 -22.015625 C 5.691406 -21.617188 5.820312 -21.203125 5.84375 -20.765625 C 5.875 -20.335938 6.132812 -19.957031 6.625 -19.625 C 7.375 -19.863281 8.125 -20.117188 8.875 -20.390625 C 9.625 -20.660156 10.375 -20.898438 11.125 -21.109375 C 12.945312 -21.648438 14.476562 -21.613281 15.71875 -21 C 16.96875 -20.382812 17.96875 -19.207031 18.71875 -17.46875 C 19.082031 -16.625 19.347656 -15.726562 19.515625 -14.78125 C 19.679688 -13.84375 19.835938 -12.890625 19.984375 -11.921875 C 20.285156 -10.128906 20.457031 -8.320312 20.5 -6.5 C 20.550781 -4.6875 20.578125 -2.863281 20.578125 -1.03125 C 20.546875 -0.0078125 20.3125 0.773438 19.875 1.328125 C 19.4375 1.878906 18.859375 2.128906 18.140625 2.078125 Z M 18.140625 2.078125 "/></g></g></g><g fill="#ffffff" fill-opacity="1"><g transform="translate(257.90567, 449.804432)"><g><path d="M 10 8.234375 C 8.4375 8.441406 7.015625 8.226562 5.734375 7.59375 C 4.460938 6.96875 3.363281 6.039062 2.4375 4.8125 C 1.976562 4.21875 1.695312 3.585938 1.59375 2.921875 C 1.488281 2.265625 1.769531 1.648438 2.4375 1.078125 C 3.0625 0.484375 3.671875 0.257812 4.265625 0.40625 C 4.867188 0.550781 5.457031 0.878906 6.03125 1.390625 C 7.738281 2.859375 9.414062 3.390625 11.0625 2.984375 C 12.71875 2.585938 14.175781 1.265625 15.4375 -0.984375 C 14.75 -1.222656 14.164062 -1.226562 13.6875 -1 C 13.207031 -0.78125 12.710938 -0.640625 12.203125 -0.578125 C 10.273438 -0.128906 8.546875 -0.210938 7.015625 -0.828125 C 5.492188 -1.441406 4.101562 -2.488281 2.84375 -3.96875 C 1.632812 -5.488281 0.992188 -7.035156 0.921875 -8.609375 C 0.847656 -10.191406 1.21875 -11.835938 2.03125 -13.546875 C 3.050781 -15.765625 4.554688 -17.46875 6.546875 -18.65625 C 8.546875 -19.84375 10.773438 -20.40625 13.234375 -20.34375 C 13.921875 -20.34375 14.570312 -20.328125 15.1875 -20.296875 C 15.800781 -20.265625 16.457031 -20.492188 17.15625 -20.984375 C 18.113281 -21.671875 18.972656 -21.816406 19.734375 -21.421875 C 20.503906 -21.035156 20.960938 -20.226562 21.109375 -19 C 21.203125 -17.800781 21.25 -16.613281 21.25 -15.4375 C 21.25 -14.269531 21.25 -13.070312 21.25 -11.84375 C 21.25 -10.375 21.238281 -8.914062 21.21875 -7.46875 C 21.207031 -6.03125 21.171875 -4.59375 21.109375 -3.15625 C 20.960938 -0.8125 20.382812 1.144531 19.375 2.71875 C 18.375 4.300781 17.066406 5.535156 15.453125 6.421875 C 13.847656 7.304688 12.03125 7.910156 10 8.234375 Z M 6.578125 -11.5625 C 5.492188 -9.613281 5.734375 -7.921875 7.296875 -6.484375 C 8.078125 -5.734375 8.960938 -5.328125 9.953125 -5.265625 C 10.941406 -5.203125 11.898438 -5.457031 12.828125 -6.03125 C 13.429688 -6.425781 13.972656 -7.019531 14.453125 -7.8125 C 14.929688 -8.601562 15.296875 -9.441406 15.546875 -10.328125 C 15.804688 -11.210938 15.875 -11.972656 15.75 -12.609375 C 15.425781 -14.460938 14.226562 -15.390625 12.15625 -15.390625 C 10.894531 -15.304688 9.796875 -14.929688 8.859375 -14.265625 C 7.929688 -13.609375 7.171875 -12.707031 6.578125 -11.5625 Z M 6.578125 -11.5625 "/></g></g></g><g fill="#ffffff" fill-opacity="1"><g transform="translate(283.701099, 449.804432)"><g/></g></g><g fill="#ffffff" fill-opacity="1"><g transform="translate(299.052908, 449.804432)"><g><path d="M 5.890625 -2.96875 C 4.335938 -4.289062 3.109375 -5.941406 2.203125 -7.921875 C 1.304688 -9.898438 0.875 -11.910156 0.90625 -13.953125 C 0.8125 -15.421875 1.035156 -16.90625 1.578125 -18.40625 C 2.117188 -19.90625 2.90625 -21.332031 3.9375 -22.6875 C 4.96875 -24.039062 6.195312 -25.195312 7.625 -26.15625 C 9.050781 -27.113281 10.613281 -27.796875 12.3125 -28.203125 C 14.007812 -28.609375 15.769531 -28.628906 17.59375 -28.265625 C 18.832031 -28.023438 19.914062 -27.582031 20.84375 -26.9375 C 21.769531 -26.289062 22.519531 -25.398438 23.09375 -24.265625 C 24.382812 -21.828125 25.132812 -19.332031 25.34375 -16.78125 C 25.550781 -14.238281 25.25 -11.8125 24.4375 -9.5 C 23.632812 -7.1875 22.347656 -5.144531 20.578125 -3.375 C 19.046875 -1.84375 17.398438 -0.878906 15.640625 -0.484375 C 13.890625 -0.0976562 12.164062 -0.144531 10.46875 -0.625 C 8.769531 -1.101562 7.242188 -1.882812 5.890625 -2.96875 Z M 6.25 -16.796875 C 5.863281 -15.554688 5.753906 -14.257812 5.921875 -12.90625 C 6.085938 -11.5625 6.492188 -10.300781 7.140625 -9.125 C 7.785156 -7.957031 8.628906 -7.015625 9.671875 -6.296875 C 12.253906 -4.523438 14.75 -4.753906 17.15625 -6.984375 C 18.46875 -8.179688 19.34375 -9.53125 19.78125 -11.03125 C 20.21875 -12.53125 20.523438 -14.015625 20.703125 -15.484375 C 20.703125 -16.566406 20.566406 -17.535156 20.296875 -18.390625 C 20.023438 -19.242188 19.726562 -20.078125 19.40625 -20.890625 C 18.945312 -22.023438 18.289062 -22.78125 17.4375 -23.15625 C 16.582031 -23.53125 15.617188 -23.691406 14.546875 -23.640625 C 13.460938 -23.578125 12.34375 -23.210938 11.1875 -22.546875 C 10.03125 -21.890625 9 -21.050781 8.09375 -20.03125 C 7.195312 -19.007812 6.582031 -17.929688 6.25 -16.796875 Z M 6.25 -16.796875 "/></g></g></g><g fill="#ffffff" fill-opacity="1"><g transform="translate(328.989791, 449.804432)"><g><path d="M 3.828125 2.25 C 3.222656 2.25 2.703125 2.050781 2.265625 1.65625 C 1.835938 1.269531 1.578125 0.78125 1.484375 0.1875 C 1.367188 -0.75 1.300781 -1.695312 1.28125 -2.65625 C 1.269531 -3.613281 1.234375 -4.554688 1.171875 -5.484375 C 1.171875 -6.453125 1.132812 -7.429688 1.0625 -8.421875 C 0.988281 -9.410156 0.953125 -10.398438 0.953125 -11.390625 C 0.953125 -12.617188 0.9375 -13.578125 0.90625 -14.265625 C 0.875 -14.960938 0.878906 -15.570312 0.921875 -16.09375 C 0.960938 -16.613281 1.078125 -17.222656 1.265625 -17.921875 C 1.378906 -18.398438 1.660156 -18.78125 2.109375 -19.0625 C 2.566406 -19.34375 3.054688 -19.5 3.578125 -19.53125 C 4.097656 -19.5625 4.539062 -19.425781 4.90625 -19.125 C 5.6875 -18.46875 6.425781 -18.171875 7.125 -18.234375 C 7.832031 -18.296875 8.578125 -18.503906 9.359375 -18.859375 C 10.140625 -19.191406 10.867188 -19.316406 11.546875 -19.234375 C 12.222656 -19.160156 12.769531 -18.691406 13.1875 -17.828125 C 13.851562 -16.390625 13.085938 -15.1875 10.890625 -14.21875 C 10.617188 -14.070312 10.347656 -13.945312 10.078125 -13.84375 C 9.804688 -13.738281 9.507812 -13.609375 9.1875 -13.453125 C 8.25 -13.066406 7.519531 -12.550781 7 -11.90625 C 6.476562 -11.257812 6.257812 -10.351562 6.34375 -9.1875 C 6.4375 -8.007812 6.453125 -6.820312 6.390625 -5.625 C 6.328125 -4.425781 6.28125 -3.226562 6.25 -2.03125 C 6.25 -1.726562 6.265625 -1.414062 6.296875 -1.09375 C 6.328125 -0.78125 6.3125 -0.460938 6.25 -0.140625 C 6.164062 1.359375 5.359375 2.15625 3.828125 2.25 Z M 3.828125 2.25 "/></g></g></g><g fill="#ffffff" fill-opacity="1"><g transform="translate(346.952501, 449.804432)"><g><path d="M 4.765625 2.203125 C 4.046875 2.359375 3.4375 2.1875 2.9375 1.6875 C 2.445312 1.195312 2.097656 0.441406 1.890625 -0.578125 C 1.679688 -1.691406 1.566406 -2.8125 1.546875 -3.9375 C 1.535156 -5.0625 1.53125 -6.179688 1.53125 -7.296875 C 1.53125 -9.066406 1.53125 -10.835938 1.53125 -12.609375 C 1.53125 -14.378906 1.546875 -16.132812 1.578125 -17.875 C 1.578125 -18.65625 1.800781 -19.285156 2.25 -19.765625 C 2.695312 -20.242188 3.328125 -20.46875 4.140625 -20.4375 C 4.921875 -20.40625 5.5 -20.15625 5.875 -19.6875 C 6.25 -19.226562 6.453125 -18.65625 6.484375 -17.96875 C 6.515625 -16.457031 6.519531 -14.9375 6.5 -13.40625 C 6.488281 -11.882812 6.484375 -10.375 6.484375 -8.875 L 6.65625 -8.875 C 6.65625 -7.582031 6.648438 -6.273438 6.640625 -4.953125 C 6.628906 -3.628906 6.632812 -2.304688 6.65625 -0.984375 C 6.6875 -0.234375 6.582031 0.4375 6.34375 1.03125 C 6.101562 1.632812 5.578125 2.023438 4.765625 2.203125 Z M 0.90625 -25.75 C 0.90625 -26.320312 1.0625 -26.882812 1.375 -27.4375 C 1.6875 -27.988281 2.085938 -28.453125 2.578125 -28.828125 C 3.078125 -29.203125 3.566406 -29.390625 4.046875 -29.390625 C 4.796875 -29.359375 5.441406 -29.039062 5.984375 -28.4375 C 6.523438 -27.84375 6.765625 -27.140625 6.703125 -26.328125 C 6.703125 -25.492188 6.410156 -24.773438 5.828125 -24.171875 C 5.242188 -23.566406 4.515625 -23.265625 3.640625 -23.265625 C 2.890625 -23.242188 2.242188 -23.476562 1.703125 -23.96875 C 1.171875 -24.46875 0.90625 -25.0625 0.90625 -25.75 Z M 0.90625 -25.75 "/></g></g></g><g fill="#ffffff" fill-opacity="1"><g transform="translate(358.207888, 449.804432)"><g><path d="M 10 8.234375 C 8.4375 8.441406 7.015625 8.226562 5.734375 7.59375 C 4.460938 6.96875 3.363281 6.039062 2.4375 4.8125 C 1.976562 4.21875 1.695312 3.585938 1.59375 2.921875 C 1.488281 2.265625 1.769531 1.648438 2.4375 1.078125 C 3.0625 0.484375 3.671875 0.257812 4.265625 0.40625 C 4.867188 0.550781 5.457031 0.878906 6.03125 1.390625 C 7.738281 2.859375 9.414062 3.390625 11.0625 2.984375 C 12.71875 2.585938 14.175781 1.265625 15.4375 -0.984375 C 14.75 -1.222656 14.164062 -1.226562 13.6875 -1 C 13.207031 -0.78125 12.710938 -0.640625 12.203125 -0.578125 C 10.273438 -0.128906 8.546875 -0.210938 7.015625 -0.828125 C 5.492188 -1.441406 4.101562 -2.488281 2.84375 -3.96875 C 1.632812 -5.488281 0.992188 -7.035156 0.921875 -8.609375 C 0.847656 -10.191406 1.21875 -11.835938 2.03125 -13.546875 C 3.050781 -15.765625 4.554688 -17.46875 6.546875 -18.65625 C 8.546875 -19.84375 10.773438 -20.40625 13.234375 -20.34375 C 13.921875 -20.34375 14.570312 -20.328125 15.1875 -20.296875 C 15.800781 -20.265625 16.457031 -20.492188 17.15625 -20.984375 C 18.113281 -21.671875 18.972656 -21.816406 19.734375 -21.421875 C 20.503906 -21.035156 20.960938 -20.226562 21.109375 -19 C 21.203125 -17.800781 21.25 -16.613281 21.25 -15.4375 C 21.25 -14.269531 21.25 -13.070312 21.25 -11.84375 C 21.25 -10.375 21.238281 -8.914062 21.21875 -7.46875 C 21.207031 -6.03125 21.171875 -4.59375 21.109375 -3.15625 C 20.960938 -0.8125 20.382812 1.144531 19.375 2.71875 C 18.375 4.300781 17.066406 5.535156 15.453125 6.421875 C 13.847656 7.304688 12.03125 7.910156 10 8.234375 Z M 6.578125 -11.5625 C 5.492188 -9.613281 5.734375 -7.921875 7.296875 -6.484375 C 8.078125 -5.734375 8.960938 -5.328125 9.953125 -5.265625 C 10.941406 -5.203125 11.898438 -5.457031 12.828125 -6.03125 C 13.429688 -6.425781 13.972656 -7.019531 14.453125 -7.8125 C 14.929688 -8.601562 15.296875 -9.441406 15.546875 -10.328125 C 15.804688 -11.210938 15.875 -11.972656 15.75 -12.609375 C 15.425781 -14.460938 14.226562 -15.390625 12.15625 -15.390625 C 10.894531 -15.304688 9.796875 -14.929688 8.859375 -14.265625 C 7.929688 -13.609375 7.171875 -12.707031 6.578125 -11.5625 Z M 6.578125 -11.5625 "/></g></g></g><g fill="#ffffff" fill-opacity="1"><g transform="translate(384.00333, 449.804432)"><g><path d="M 4.765625 2.203125 C 4.046875 2.359375 3.4375 2.1875 2.9375 1.6875 C 2.445312 1.195312 2.097656 0.441406 1.890625 -0.578125 C 1.679688 -1.691406 1.566406 -2.8125 1.546875 -3.9375 C 1.535156 -5.0625 1.53125 -6.179688 1.53125 -7.296875 C 1.53125 -9.066406 1.53125 -10.835938 1.53125 -12.609375 C 1.53125 -14.378906 1.546875 -16.132812 1.578125 -17.875 C 1.578125 -18.65625 1.800781 -19.285156 2.25 -19.765625 C 2.695312 -20.242188 3.328125 -20.46875 4.140625 -20.4375 C 4.921875 -20.40625 5.5 -20.15625 5.875 -19.6875 C 6.25 -19.226562 6.453125 -18.65625 6.484375 -17.96875 C 6.515625 -16.457031 6.519531 -14.9375 6.5 -13.40625 C 6.488281 -11.882812 6.484375 -10.375 6.484375 -8.875 L 6.65625 -8.875 C 6.65625 -7.582031 6.648438 -6.273438 6.640625 -4.953125 C 6.628906 -3.628906 6.632812 -2.304688 6.65625 -0.984375 C 6.6875 -0.234375 6.582031 0.4375 6.34375 1.03125 C 6.101562 1.632812 5.578125 2.023438 4.765625 2.203125 Z M 0.90625 -25.75 C 0.90625 -26.320312 1.0625 -26.882812 1.375 -27.4375 C 1.6875 -27.988281 2.085938 -28.453125 2.578125 -28.828125 C 3.078125 -29.203125 3.566406 -29.390625 4.046875 -29.390625 C 4.796875 -29.359375 5.441406 -29.039062 5.984375 -28.4375 C 6.523438 -27.84375 6.765625 -27.140625 6.703125 -26.328125 C 6.703125 -25.492188 6.410156 -24.773438 5.828125 -24.171875 C 5.242188 -23.566406 4.515625 -23.265625 3.640625 -23.265625 C 2.890625 -23.242188 2.242188 -23.476562 1.703125 -23.96875 C 1.171875 -24.46875 0.90625 -25.0625 0.90625 -25.75 Z M 0.90625 -25.75 "/></g></g></g><g fill="#ffffff" fill-opacity="1"><g transform="translate(395.258717, 449.804432)"><g><path d="M 18.140625 2.078125 C 17.296875 1.953125 16.71875 1.617188 16.40625 1.078125 C 16.09375 0.535156 15.90625 -0.125 15.84375 -0.90625 C 15.695312 -2.882812 15.5625 -4.835938 15.4375 -6.765625 C 15.320312 -8.703125 15.144531 -10.632812 14.90625 -12.5625 C 14.84375 -13.039062 14.78125 -13.554688 14.71875 -14.109375 C 14.65625 -14.660156 14.503906 -15.144531 14.265625 -15.5625 C 14.023438 -15.988281 13.609375 -16.21875 13.015625 -16.25 C 12.109375 -16.375 11.203125 -16.25 10.296875 -15.875 C 9.398438 -15.5 8.65625 -14.890625 8.0625 -14.046875 C 7.488281 -13.328125 7.070312 -12.566406 6.8125 -11.765625 C 6.5625 -10.972656 6.5 -10.113281 6.625 -9.1875 C 6.738281 -7.976562 6.816406 -6.773438 6.859375 -5.578125 C 6.910156 -4.378906 6.976562 -3.195312 7.0625 -2.03125 C 7.09375 -1.488281 7.085938 -0.976562 7.046875 -0.5 C 7.003906 -0.0195312 6.769531 0.414062 6.34375 0.8125 C 5.832031 1.351562 5.203125 1.582031 4.453125 1.5 C 3.703125 1.425781 3.148438 1.0625 2.796875 0.40625 C 2.640625 0.0703125 2.53125 -0.28125 2.46875 -0.65625 C 2.414062 -1.03125 2.359375 -1.394531 2.296875 -1.75 C 2.054688 -4.664062 1.820312 -7.5625 1.59375 -10.4375 C 1.375 -13.320312 1.160156 -16.207031 0.953125 -19.09375 C 0.921875 -19.476562 0.910156 -19.875 0.921875 -20.28125 C 0.941406 -20.6875 0.960938 -21.066406 0.984375 -21.421875 C 1.140625 -22.597656 1.816406 -23.226562 3.015625 -23.3125 C 4.097656 -23.46875 4.910156 -23.035156 5.453125 -22.015625 C 5.691406 -21.617188 5.820312 -21.203125 5.84375 -20.765625 C 5.875 -20.335938 6.132812 -19.957031 6.625 -19.625 C 7.375 -19.863281 8.125 -20.117188 8.875 -20.390625 C 9.625 -20.660156 10.375 -20.898438 11.125 -21.109375 C 12.945312 -21.648438 14.476562 -21.613281 15.71875 -21 C 16.96875 -20.382812 17.96875 -19.207031 18.71875 -17.46875 C 19.082031 -16.625 19.347656 -15.726562 19.515625 -14.78125 C 19.679688 -13.84375 19.835938 -12.890625 19.984375 -11.921875 C 20.285156 -10.128906 20.457031 -8.320312 20.5 -6.5 C 20.550781 -4.6875 20.578125 -2.863281 20.578125 -1.03125 C 20.546875 -0.0078125 20.3125 0.773438 19.875 1.328125 C 19.4375 1.878906 18.859375 2.128906 18.140625 2.078125 Z M 18.140625 2.078125 "/></g></g></g><g fill="#ffffff" fill-opacity="1"><g transform="translate(420.378929, 449.804432)"><g><path d="M 6.703125 0.265625 C 3.585938 0.0859375 1.695312 -1.289062 1.03125 -3.875 C 0.726562 -5.101562 0.890625 -6.332031 1.515625 -7.5625 C 2.148438 -8.789062 3.097656 -9.738281 4.359375 -10.40625 C 5.710938 -11.09375 7.117188 -11.613281 8.578125 -11.96875 C 10.035156 -12.332031 11.523438 -12.570312 13.046875 -12.6875 C 13.316406 -12.75 13.601562 -12.78125 13.90625 -12.78125 C 14.207031 -12.78125 14.46875 -12.835938 14.6875 -12.953125 C 14.914062 -13.078125 15.046875 -13.351562 15.078125 -13.78125 C 15.171875 -14.945312 14.660156 -15.753906 13.546875 -16.203125 C 12.734375 -16.597656 11.9375 -16.695312 11.15625 -16.5 C 10.382812 -16.300781 9.648438 -15.929688 8.953125 -15.390625 C 8.566406 -15.085938 8.203125 -14.753906 7.859375 -14.390625 C 7.515625 -14.035156 7.144531 -13.695312 6.75 -13.375 C 5.820312 -12.675781 4.90625 -12.675781 4 -13.375 C 3.46875 -13.820312 3.15625 -14.304688 3.0625 -14.828125 C 2.96875 -15.359375 3.054688 -15.90625 3.328125 -16.46875 C 3.722656 -17.4375 4.429688 -18.300781 5.453125 -19.0625 C 6.472656 -19.832031 7.648438 -20.425781 8.984375 -20.84375 C 10.316406 -21.257812 11.613281 -21.425781 12.875 -21.34375 C 14.675781 -21.21875 16.144531 -20.6875 17.28125 -19.75 C 18.425781 -18.820312 19.285156 -17.414062 19.859375 -15.53125 C 20.273438 -14.238281 20.46875 -12.960938 20.4375 -11.703125 C 20.40625 -10.441406 20.40625 -9.285156 20.4375 -8.234375 C 20.4375 -7.128906 20.441406 -6.144531 20.453125 -5.28125 C 20.472656 -4.425781 20.46875 -3.597656 20.4375 -2.796875 C 20.4375 -1.953125 20.210938 -1.265625 19.765625 -0.734375 C 19.316406 -0.210938 18.703125 -0.0390625 17.921875 -0.21875 C 16.953125 -0.457031 16.019531 -0.539062 15.125 -0.46875 C 14.226562 -0.394531 13.328125 -0.28125 12.421875 -0.125 C 11.523438 0.0195312 10.609375 0.078125 9.671875 0.046875 C 9.191406 0.046875 8.703125 0.0820312 8.203125 0.15625 C 7.710938 0.226562 7.210938 0.265625 6.703125 0.265625 Z M 6.390625 -5.671875 C 6.390625 -5.191406 6.488281 -4.898438 6.6875 -4.796875 C 6.882812 -4.691406 7.039062 -4.65625 7.15625 -4.6875 C 8.351562 -4.800781 9.546875 -4.910156 10.734375 -5.015625 C 11.921875 -5.117188 13.082031 -5.25 14.21875 -5.40625 C 14.550781 -5.4375 14.828125 -5.570312 15.046875 -5.8125 C 15.273438 -6.050781 15.40625 -6.332031 15.4375 -6.65625 C 15.4375 -7.050781 15.304688 -7.316406 15.046875 -7.453125 C 14.796875 -7.585938 14.507812 -7.65625 14.1875 -7.65625 C 12.769531 -7.625 11.382812 -7.503906 10.03125 -7.296875 C 8.6875 -7.085938 7.472656 -6.546875 6.390625 -5.671875 Z M 6.390625 -5.671875 "/></g></g></g><g fill="#ffffff" fill-opacity="1"><g transform="translate(445.36408, 449.804432)"><g><path d="M 4.6875 1.21875 C 4.019531 1.363281 3.410156 1.171875 2.859375 0.640625 C 2.304688 0.117188 2.015625 -0.648438 1.984375 -1.671875 C 1.953125 -2.390625 1.910156 -3.367188 1.859375 -4.609375 C 1.816406 -5.859375 1.757812 -7.253906 1.6875 -8.796875 C 1.613281 -10.347656 1.546875 -11.925781 1.484375 -13.53125 C 1.421875 -15.132812 1.351562 -16.675781 1.28125 -18.15625 C 1.207031 -19.644531 1.140625 -20.953125 1.078125 -22.078125 C 1.015625 -23.203125 0.972656 -24.035156 0.953125 -24.578125 C 0.921875 -25.453125 0.921875 -26.351562 0.953125 -27.28125 C 1.066406 -27.96875 1.316406 -28.539062 1.703125 -29 C 2.097656 -29.46875 2.65625 -29.703125 3.375 -29.703125 C 4.15625 -29.734375 4.769531 -29.507812 5.21875 -29.03125 C 5.664062 -28.550781 5.890625 -27.890625 5.890625 -27.046875 C 5.921875 -24.265625 6.023438 -21.476562 6.203125 -18.6875 C 6.390625 -15.894531 6.554688 -13.09375 6.703125 -10.28125 C 6.859375 -7.476562 6.890625 -4.648438 6.796875 -1.796875 C 6.765625 -1.046875 6.601562 -0.398438 6.3125 0.140625 C 6.03125 0.679688 5.488281 1.039062 4.6875 1.21875 Z M 4.6875 1.21875 "/></g></g></g><g fill="#ffffff" fill-opacity="1"><g transform="translate(456.754528, 449.804432)"><g/></g></g><g fill="#ffffff" fill-opacity="1"><g transform="translate(472.106336, 449.804432)"><g><path d="M 3.921875 0.71875 C 3.140625 0.75 2.550781 0.53125 2.15625 0.0625 C 1.769531 -0.394531 1.515625 -0.957031 1.390625 -1.625 C 1.273438 -1.945312 1.207031 -2.257812 1.1875 -2.5625 C 1.175781 -2.863281 1.171875 -3.179688 1.171875 -3.515625 C 1.140625 -7.472656 1.097656 -11.429688 1.046875 -15.390625 C 1.003906 -19.359375 0.957031 -23.320312 0.90625 -27.28125 C 0.90625 -28.03125 1.03125 -28.6875 1.28125 -29.25 C 1.539062 -29.820312 2.117188 -30.1875 3.015625 -30.34375 C 4.484375 -30.519531 5.398438 -29.554688 5.765625 -27.453125 C 6.085938 -25.148438 6.226562 -22.894531 6.1875 -20.6875 C 6.144531 -18.476562 6.140625 -16.625 6.171875 -15.125 L 6.171875 -3.328125 C 6.171875 -3.085938 6.175781 -2.835938 6.1875 -2.578125 C 6.207031 -2.328125 6.203125 -2.066406 6.171875 -1.796875 C 6.078125 -0.234375 5.328125 0.601562 3.921875 0.71875 Z M 3.921875 0.71875 "/></g></g></g><g fill="#ffffff" fill-opacity="1"><g transform="translate(482.821555, 449.804432)"><g><path d="M 5.09375 2.34375 C 4.25 2.457031 3.59375 2.296875 3.125 1.859375 C 2.664062 1.429688 2.390625 0.828125 2.296875 0.046875 C 2.054688 -2.890625 1.820312 -5.835938 1.59375 -8.796875 C 1.375 -11.753906 1.160156 -14.703125 0.953125 -17.640625 C 0.859375 -18.359375 0.914062 -19.039062 1.125 -19.6875 C 1.332031 -20.332031 1.84375 -20.789062 2.65625 -21.0625 C 3.46875 -21.300781 4.140625 -21.222656 4.671875 -20.828125 C 5.210938 -20.441406 5.648438 -19.921875 5.984375 -19.265625 C 6.046875 -19.148438 6.128906 -19.0625 6.234375 -19 C 6.335938 -18.9375 6.4375 -18.875 6.53125 -18.8125 C 7.25 -19.050781 7.9375 -19.359375 8.59375 -19.734375 C 9.257812 -20.109375 9.96875 -20.375 10.71875 -20.53125 C 11.582031 -20.707031 12.425781 -20.765625 13.25 -20.703125 C 14.082031 -20.640625 14.796875 -20.3125 15.390625 -19.71875 C 16.203125 -18.90625 16.972656 -18.550781 17.703125 -18.65625 C 18.441406 -18.757812 19.1875 -19.097656 19.9375 -19.671875 C 20.125 -19.765625 20.296875 -19.863281 20.453125 -19.96875 C 20.617188 -20.070312 20.78125 -20.15625 20.9375 -20.21875 C 23.0625 -21.238281 24.773438 -21.460938 26.078125 -20.890625 C 27.390625 -20.316406 28.34375 -18.890625 28.9375 -16.609375 C 29.363281 -14.992188 29.648438 -13.34375 29.796875 -11.65625 C 29.953125 -9.976562 30.070312 -8.296875 30.15625 -6.609375 C 30.25 -4.929688 30.398438 -3.269531 30.609375 -1.625 C 30.671875 -0.988281 30.519531 -0.460938 30.15625 -0.046875 C 29.800781 0.367188 29.273438 0.640625 28.578125 0.765625 C 26.992188 0.910156 26.082031 0.234375 25.84375 -1.265625 C 25.65625 -2.492188 25.492188 -3.742188 25.359375 -5.015625 C 25.222656 -6.296875 25.097656 -7.535156 24.984375 -8.734375 C 24.890625 -9.867188 24.8125 -11 24.75 -12.125 C 24.695312 -13.25 24.457031 -14.351562 24.03125 -15.4375 C 22.019531 -15.050781 20.628906 -14.441406 19.859375 -13.609375 C 19.097656 -12.785156 18.71875 -11.445312 18.71875 -9.59375 C 18.75 -8.570312 18.796875 -7.566406 18.859375 -6.578125 C 18.921875 -5.585938 18.96875 -4.566406 19 -3.515625 C 19.03125 -3.148438 19.054688 -2.78125 19.078125 -2.40625 C 19.109375 -2.03125 19.113281 -1.664062 19.09375 -1.3125 C 19.0625 -0.5 18.863281 0.175781 18.5 0.71875 C 18.144531 1.257812 17.515625 1.515625 16.609375 1.484375 C 15.859375 1.453125 15.300781 1.210938 14.9375 0.765625 C 14.582031 0.316406 14.375 -0.265625 14.3125 -0.984375 C 14.195312 -2.703125 14.09375 -4.414062 14 -6.125 C 13.90625 -7.832031 13.785156 -9.507812 13.640625 -11.15625 C 13.609375 -11.726562 13.597656 -12.3125 13.609375 -12.90625 C 13.628906 -13.507812 13.546875 -14.050781 13.359375 -14.53125 C 13.179688 -15.019531 12.78125 -15.335938 12.15625 -15.484375 C 11.550781 -15.660156 10.992188 -15.617188 10.484375 -15.359375 C 9.972656 -15.109375 9.507812 -14.75 9.09375 -14.28125 C 8.675781 -13.820312 8.269531 -13.351562 7.875 -12.875 C 6.882812 -11.707031 6.4375 -10.296875 6.53125 -8.640625 C 6.644531 -7.535156 6.734375 -6.410156 6.796875 -5.265625 C 6.859375 -4.128906 6.90625 -2.972656 6.9375 -1.796875 C 6.96875 -1.585938 7.007812 -1.347656 7.0625 -1.078125 C 7.125 -0.804688 7.15625 -0.550781 7.15625 -0.3125 C 7.15625 0.375 7.007812 0.960938 6.71875 1.453125 C 6.4375 1.953125 5.894531 2.25 5.09375 2.34375 Z M 5.09375 2.34375 "/></g></g></g><g fill="#ffffff" fill-opacity="1"><g transform="translate(517.980241, 449.804432)"><g><path d="M 6.703125 0.265625 C 3.585938 0.0859375 1.695312 -1.289062 1.03125 -3.875 C 0.726562 -5.101562 0.890625 -6.332031 1.515625 -7.5625 C 2.148438 -8.789062 3.097656 -9.738281 4.359375 -10.40625 C 5.710938 -11.09375 7.117188 -11.613281 8.578125 -11.96875 C 10.035156 -12.332031 11.523438 -12.570312 13.046875 -12.6875 C 13.316406 -12.75 13.601562 -12.78125 13.90625 -12.78125 C 14.207031 -12.78125 14.46875 -12.835938 14.6875 -12.953125 C 14.914062 -13.078125 15.046875 -13.351562 15.078125 -13.78125 C 15.171875 -14.945312 14.660156 -15.753906 13.546875 -16.203125 C 12.734375 -16.597656 11.9375 -16.695312 11.15625 -16.5 C 10.382812 -16.300781 9.648438 -15.929688 8.953125 -15.390625 C 8.566406 -15.085938 8.203125 -14.753906 7.859375 -14.390625 C 7.515625 -14.035156 7.144531 -13.695312 6.75 -13.375 C 5.820312 -12.675781 4.90625 -12.675781 4 -13.375 C 3.46875 -13.820312 3.15625 -14.304688 3.0625 -14.828125 C 2.96875 -15.359375 3.054688 -15.90625 3.328125 -16.46875 C 3.722656 -17.4375 4.429688 -18.300781 5.453125 -19.0625 C 6.472656 -19.832031 7.648438 -20.425781 8.984375 -20.84375 C 10.316406 -21.257812 11.613281 -21.425781 12.875 -21.34375 C 14.675781 -21.21875 16.144531 -20.6875 17.28125 -19.75 C 18.425781 -18.820312 19.285156 -17.414062 19.859375 -15.53125 C 20.273438 -14.238281 20.46875 -12.960938 20.4375 -11.703125 C 20.40625 -10.441406 20.40625 -9.285156 20.4375 -8.234375 C 20.4375 -7.128906 20.441406 -6.144531 20.453125 -5.28125 C 20.472656 -4.425781 20.46875 -3.597656 20.4375 -2.796875 C 20.4375 -1.953125 20.210938 -1.265625 19.765625 -0.734375 C 19.316406 -0.210938 18.703125 -0.0390625 17.921875 -0.21875 C 16.953125 -0.457031 16.019531 -0.539062 15.125 -0.46875 C 14.226562 -0.394531 13.328125 -0.28125 12.421875 -0.125 C 11.523438 0.0195312 10.609375 0.078125 9.671875 0.046875 C 9.191406 0.046875 8.703125 0.0820312 8.203125 0.15625 C 7.710938 0.226562 7.210938 0.265625 6.703125 0.265625 Z M 6.390625 -5.671875 C 6.390625 -5.191406 6.488281 -4.898438 6.6875 -4.796875 C 6.882812 -4.691406 7.039062 -4.65625 7.15625 -4.6875 C 8.351562 -4.800781 9.546875 -4.910156 10.734375 -5.015625 C 11.921875 -5.117188 13.082031 -5.25 14.21875 -5.40625 C 14.550781 -5.4375 14.828125 -5.570312 15.046875 -5.8125 C 15.273438 -6.050781 15.40625 -6.332031 15.4375 -6.65625 C 15.4375 -7.050781 15.304688 -7.316406 15.046875 -7.453125 C 14.796875 -7.585938 14.507812 -7.65625 14.1875 -7.65625 C 12.769531 -7.625 11.382812 -7.503906 10.03125 -7.296875 C 8.6875 -7.085938 7.472656 -6.546875 6.390625 -5.671875 Z M 6.390625 -5.671875 "/></g></g></g><g fill="#ffffff" fill-opacity="1"><g transform="translate(542.965367, 449.804432)"><g><path d="M 10 8.234375 C 8.4375 8.441406 7.015625 8.226562 5.734375 7.59375 C 4.460938 6.96875 3.363281 6.039062 2.4375 4.8125 C 1.976562 4.21875 1.695312 3.585938 1.59375 2.921875 C 1.488281 2.265625 1.769531 1.648438 2.4375 1.078125 C 3.0625 0.484375 3.671875 0.257812 4.265625 0.40625 C 4.867188 0.550781 5.457031 0.878906 6.03125 1.390625 C 7.738281 2.859375 9.414062 3.390625 11.0625 2.984375 C 12.71875 2.585938 14.175781 1.265625 15.4375 -0.984375 C 14.75 -1.222656 14.164062 -1.226562 13.6875 -1 C 13.207031 -0.78125 12.710938 -0.640625 12.203125 -0.578125 C 10.273438 -0.128906 8.546875 -0.210938 7.015625 -0.828125 C 5.492188 -1.441406 4.101562 -2.488281 2.84375 -3.96875 C 1.632812 -5.488281 0.992188 -7.035156 0.921875 -8.609375 C 0.847656 -10.191406 1.21875 -11.835938 2.03125 -13.546875 C 3.050781 -15.765625 4.554688 -17.46875 6.546875 -18.65625 C 8.546875 -19.84375 10.773438 -20.40625 13.234375 -20.34375 C 13.921875 -20.34375 14.570312 -20.328125 15.1875 -20.296875 C 15.800781 -20.265625 16.457031 -20.492188 17.15625 -20.984375 C 18.113281 -21.671875 18.972656 -21.816406 19.734375 -21.421875 C 20.503906 -21.035156 20.960938 -20.226562 21.109375 -19 C 21.203125 -17.800781 21.25 -16.613281 21.25 -15.4375 C 21.25 -14.269531 21.25 -13.070312 21.25 -11.84375 C 21.25 -10.375 21.238281 -8.914062 21.21875 -7.46875 C 21.207031 -6.03125 21.171875 -4.59375 21.109375 -3.15625 C 20.960938 -0.8125 20.382812 1.144531 19.375 2.71875 C 18.375 4.300781 17.066406 5.535156 15.453125 6.421875 C 13.847656 7.304688 12.03125 7.910156 10 8.234375 Z M 6.578125 -11.5625 C 5.492188 -9.613281 5.734375 -7.921875 7.296875 -6.484375 C 8.078125 -5.734375 8.960938 -5.328125 9.953125 -5.265625 C 10.941406 -5.203125 11.898438 -5.457031 12.828125 -6.03125 C 13.429688 -6.425781 13.972656 -7.019531 14.453125 -7.8125 C 14.929688 -8.601562 15.296875 -9.441406 15.546875 -10.328125 C 15.804688 -11.210938 15.875 -11.972656 15.75 -12.609375 C 15.425781 -14.460938 14.226562 -15.390625 12.15625 -15.390625 C 10.894531 -15.304688 9.796875 -14.929688 8.859375 -14.265625 C 7.929688 -13.609375 7.171875 -12.707031 6.578125 -11.5625 Z M 6.578125 -11.5625 "/></g></g></g><g fill="#ffffff" fill-opacity="1"><g transform="translate(568.760809, 449.804432)"><g><path d="M 4.765625 2.203125 C 4.046875 2.359375 3.4375 2.1875 2.9375 1.6875 C 2.445312 1.195312 2.097656 0.441406 1.890625 -0.578125 C 1.679688 -1.691406 1.566406 -2.8125 1.546875 -3.9375 C 1.535156 -5.0625 1.53125 -6.179688 1.53125 -7.296875 C 1.53125 -9.066406 1.53125 -10.835938 1.53125 -12.609375 C 1.53125 -14.378906 1.546875 -16.132812 1.578125 -17.875 C 1.578125 -18.65625 1.800781 -19.285156 2.25 -19.765625 C 2.695312 -20.242188 3.328125 -20.46875 4.140625 -20.4375 C 4.921875 -20.40625 5.5 -20.15625 5.875 -19.6875 C 6.25 -19.226562 6.453125 -18.65625 6.484375 -17.96875 C 6.515625 -16.457031 6.519531 -14.9375 6.5 -13.40625 C 6.488281 -11.882812 6.484375 -10.375 6.484375 -8.875 L 6.65625 -8.875 C 6.65625 -7.582031 6.648438 -6.273438 6.640625 -4.953125 C 6.628906 -3.628906 6.632812 -2.304688 6.65625 -0.984375 C 6.6875 -0.234375 6.582031 0.4375 6.34375 1.03125 C 6.101562 1.632812 5.578125 2.023438 4.765625 2.203125 Z M 0.90625 -25.75 C 0.90625 -26.320312 1.0625 -26.882812 1.375 -27.4375 C 1.6875 -27.988281 2.085938 -28.453125 2.578125 -28.828125 C 3.078125 -29.203125 3.566406 -29.390625 4.046875 -29.390625 C 4.796875 -29.359375 5.441406 -29.039062 5.984375 -28.4375 C 6.523438 -27.84375 6.765625 -27.140625 6.703125 -26.328125 C 6.703125 -25.492188 6.410156 -24.773438 5.828125 -24.171875 C 5.242188 -23.566406 4.515625 -23.265625 3.640625 -23.265625 C 2.890625 -23.242188 2.242188 -23.476562 1.703125 -23.96875 C 1.171875 -24.46875 0.90625 -25.0625 0.90625 -25.75 Z M 0.90625 -25.75 "/></g></g></g><g fill="#ffffff" fill-opacity="1"><g transform="translate(580.016196, 449.804432)"><g><path d="M 18.140625 2.078125 C 17.296875 1.953125 16.71875 1.617188 16.40625 1.078125 C 16.09375 0.535156 15.90625 -0.125 15.84375 -0.90625 C 15.695312 -2.882812 15.5625 -4.835938 15.4375 -6.765625 C 15.320312 -8.703125 15.144531 -10.632812 14.90625 -12.5625 C 14.84375 -13.039062 14.78125 -13.554688 14.71875 -14.109375 C 14.65625 -14.660156 14.503906 -15.144531 14.265625 -15.5625 C 14.023438 -15.988281 13.609375 -16.21875 13.015625 -16.25 C 12.109375 -16.375 11.203125 -16.25 10.296875 -15.875 C 9.398438 -15.5 8.65625 -14.890625 8.0625 -14.046875 C 7.488281 -13.328125 7.070312 -12.566406 6.8125 -11.765625 C 6.5625 -10.972656 6.5 -10.113281 6.625 -9.1875 C 6.738281 -7.976562 6.816406 -6.773438 6.859375 -5.578125 C 6.910156 -4.378906 6.976562 -3.195312 7.0625 -2.03125 C 7.09375 -1.488281 7.085938 -0.976562 7.046875 -0.5 C 7.003906 -0.0195312 6.769531 0.414062 6.34375 0.8125 C 5.832031 1.351562 5.203125 1.582031 4.453125 1.5 C 3.703125 1.425781 3.148438 1.0625 2.796875 0.40625 C 2.640625 0.0703125 2.53125 -0.28125 2.46875 -0.65625 C 2.414062 -1.03125 2.359375 -1.394531 2.296875 -1.75 C 2.054688 -4.664062 1.820312 -7.5625 1.59375 -10.4375 C 1.375 -13.320312 1.160156 -16.207031 0.953125 -19.09375 C 0.921875 -19.476562 0.910156 -19.875 0.921875 -20.28125 C 0.941406 -20.6875 0.960938 -21.066406 0.984375 -21.421875 C 1.140625 -22.597656 1.816406 -23.226562 3.015625 -23.3125 C 4.097656 -23.46875 4.910156 -23.035156 5.453125 -22.015625 C 5.691406 -21.617188 5.820312 -21.203125 5.84375 -20.765625 C 5.875 -20.335938 6.132812 -19.957031 6.625 -19.625 C 7.375 -19.863281 8.125 -20.117188 8.875 -20.390625 C 9.625 -20.660156 10.375 -20.898438 11.125 -21.109375 C 12.945312 -21.648438 14.476562 -21.613281 15.71875 -21 C 16.96875 -20.382812 17.96875 -19.207031 18.71875 -17.46875 C 19.082031 -16.625 19.347656 -15.726562 19.515625 -14.78125 C 19.679688 -13.84375 19.835938 -12.890625 19.984375 -11.921875 C 20.285156 -10.128906 20.457031 -8.320312 20.5 -6.5 C 20.550781 -4.6875 20.578125 -2.863281 20.578125 -1.03125 C 20.546875 -0.0078125 20.3125 0.773438 19.875 1.328125 C 19.4375 1.878906 18.859375 2.128906 18.140625 2.078125 Z M 18.140625 2.078125 "/></g></g></g><g fill="#ffffff" fill-opacity="1"><g transform="translate(605.136383, 449.804432)"><g><path d="M 6.703125 0.265625 C 3.585938 0.0859375 1.695312 -1.289062 1.03125 -3.875 C 0.726562 -5.101562 0.890625 -6.332031 1.515625 -7.5625 C 2.148438 -8.789062 3.097656 -9.738281 4.359375 -10.40625 C 5.710938 -11.09375 7.117188 -11.613281 8.578125 -11.96875 C 10.035156 -12.332031 11.523438 -12.570312 13.046875 -12.6875 C 13.316406 -12.75 13.601562 -12.78125 13.90625 -12.78125 C 14.207031 -12.78125 14.46875 -12.835938 14.6875 -12.953125 C 14.914062 -13.078125 15.046875 -13.351562 15.078125 -13.78125 C 15.171875 -14.945312 14.660156 -15.753906 13.546875 -16.203125 C 12.734375 -16.597656 11.9375 -16.695312 11.15625 -16.5 C 10.382812 -16.300781 9.648438 -15.929688 8.953125 -15.390625 C 8.566406 -15.085938 8.203125 -14.753906 7.859375 -14.390625 C 7.515625 -14.035156 7.144531 -13.695312 6.75 -13.375 C 5.820312 -12.675781 4.90625 -12.675781 4 -13.375 C 3.46875 -13.820312 3.15625 -14.304688 3.0625 -14.828125 C 2.96875 -15.359375 3.054688 -15.90625 3.328125 -16.46875 C 3.722656 -17.4375 4.429688 -18.300781 5.453125 -19.0625 C 6.472656 -19.832031 7.648438 -20.425781 8.984375 -20.84375 C 10.316406 -21.257812 11.613281 -21.425781 12.875 -21.34375 C 14.675781 -21.21875 16.144531 -20.6875 17.28125 -19.75 C 18.425781 -18.820312 19.285156 -17.414062 19.859375 -15.53125 C 20.273438 -14.238281 20.46875 -12.960938 20.4375 -11.703125 C 20.40625 -10.441406 20.40625 -9.285156 20.4375 -8.234375 C 20.4375 -7.128906 20.441406 -6.144531 20.453125 -5.28125 C 20.472656 -4.425781 20.46875 -3.597656 20.4375 -2.796875 C 20.4375 -1.953125 20.210938 -1.265625 19.765625 -0.734375 C 19.316406 -0.210938 18.703125 -0.0390625 17.921875 -0.21875 C 16.953125 -0.457031 16.019531 -0.539062 15.125 -0.46875 C 14.226562 -0.394531 13.328125 -0.28125 12.421875 -0.125 C 11.523438 0.0195312 10.609375 0.078125 9.671875 0.046875 C 9.191406 0.046875 8.703125 0.0820312 8.203125 0.15625 C 7.710938 0.226562 7.210938 0.265625 6.703125 0.265625 Z M 6.390625 -5.671875 C 6.390625 -5.191406 6.488281 -4.898438 6.6875 -4.796875 C 6.882812 -4.691406 7.039062 -4.65625 7.15625 -4.6875 C 8.351562 -4.800781 9.546875 -4.910156 10.734375 -5.015625 C 11.921875 -5.117188 13.082031 -5.25 14.21875 -5.40625 C 14.550781 -5.4375 14.828125 -5.570312 15.046875 -5.8125 C 15.273438 -6.050781 15.40625 -6.332031 15.4375 -6.65625 C 15.4375 -7.050781 15.304688 -7.316406 15.046875 -7.453125 C 14.796875 -7.585938 14.507812 -7.65625 14.1875 -7.65625 C 12.769531 -7.625 11.382812 -7.503906 10.03125 -7.296875 C 8.6875 -7.085938 7.472656 -6.546875 6.390625 -5.671875 Z M 6.390625 -5.671875 "/></g></g></g><g fill="#ffffff" fill-opacity="1"><g transform="translate(630.121508, 449.804432)"><g><path d="M 11.703125 1.078125 C 10.265625 1.015625 9.039062 0.53125 8.03125 -0.375 C 7.03125 -1.289062 6.410156 -2.578125 6.171875 -4.234375 C 6.046875 -5.398438 5.972656 -6.59375 5.953125 -7.8125 C 5.941406 -9.03125 5.9375 -10.238281 5.9375 -11.4375 C 5.9375 -12.007812 5.890625 -12.539062 5.796875 -13.03125 C 5.710938 -13.53125 5.5 -13.921875 5.15625 -14.203125 C 4.8125 -14.484375 4.21875 -14.582031 3.375 -14.5 C 2.65625 -14.46875 2.070312 -14.65625 1.625 -15.0625 C 1.175781 -15.46875 0.9375 -16.03125 0.90625 -16.75 C 0.875 -17.53125 1.082031 -18.128906 1.53125 -18.546875 C 1.976562 -18.960938 2.535156 -19.203125 3.203125 -19.265625 C 4.273438 -19.328125 5.015625 -19.628906 5.421875 -20.171875 C 5.828125 -20.710938 6 -21.460938 5.9375 -22.421875 C 5.90625 -22.742188 5.910156 -23.0625 5.953125 -23.375 C 6.003906 -23.695312 6.0625 -24.007812 6.125 -24.3125 C 6.507812 -25.570312 7.394531 -26.125 8.78125 -25.96875 C 9.945312 -25.882812 10.578125 -25.210938 10.671875 -23.953125 C 10.753906 -23.472656 10.753906 -22.976562 10.671875 -22.46875 C 10.546875 -21.59375 10.65625 -20.953125 11 -20.546875 C 11.351562 -20.140625 12.007812 -20 12.96875 -20.125 C 13.65625 -20.1875 14.242188 -20.015625 14.734375 -19.609375 C 15.234375 -19.203125 15.5 -18.640625 15.53125 -17.921875 C 15.59375 -17.171875 15.410156 -16.546875 14.984375 -16.046875 C 14.566406 -15.554688 14.015625 -15.3125 13.328125 -15.3125 C 12.066406 -15.28125 11.285156 -14.929688 10.984375 -14.265625 C 10.679688 -13.609375 10.578125 -12.785156 10.671875 -11.796875 C 10.753906 -10.867188 10.828125 -9.929688 10.890625 -8.984375 C 10.953125 -8.035156 11 -7.082031 11.03125 -6.125 C 11.0625 -5.550781 11.1875 -5.046875 11.40625 -4.609375 C 11.632812 -4.179688 12.15625 -3.96875 12.96875 -3.96875 C 13.78125 -3.988281 14.414062 -3.765625 14.875 -3.296875 C 15.34375 -2.835938 15.53125 -2.203125 15.4375 -1.390625 C 15.351562 -0.554688 15.015625 0.0234375 14.421875 0.359375 C 13.835938 0.691406 13.171875 0.929688 12.421875 1.078125 Z M 11.703125 1.078125 "/></g></g></g><g fill="#ffffff" fill-opacity="1"><g transform="translate(650.199973, 449.804432)"><g><path d="M 4.765625 2.203125 C 4.046875 2.359375 3.4375 2.1875 2.9375 1.6875 C 2.445312 1.195312 2.097656 0.441406 1.890625 -0.578125 C 1.679688 -1.691406 1.566406 -2.8125 1.546875 -3.9375 C 1.535156 -5.0625 1.53125 -6.179688 1.53125 -7.296875 C 1.53125 -9.066406 1.53125 -10.835938 1.53125 -12.609375 C 1.53125 -14.378906 1.546875 -16.132812 1.578125 -17.875 C 1.578125 -18.65625 1.800781 -19.285156 2.25 -19.765625 C 2.695312 -20.242188 3.328125 -20.46875 4.140625 -20.4375 C 4.921875 -20.40625 5.5 -20.15625 5.875 -19.6875 C 6.25 -19.226562 6.453125 -18.65625 6.484375 -17.96875 C 6.515625 -16.457031 6.519531 -14.9375 6.5 -13.40625 C 6.488281 -11.882812 6.484375 -10.375 6.484375 -8.875 L 6.65625 -8.875 C 6.65625 -7.582031 6.648438 -6.273438 6.640625 -4.953125 C 6.628906 -3.628906 6.632812 -2.304688 6.65625 -0.984375 C 6.6875 -0.234375 6.582031 0.4375 6.34375 1.03125 C 6.101562 1.632812 5.578125 2.023438 4.765625 2.203125 Z M 0.90625 -25.75 C 0.90625 -26.320312 1.0625 -26.882812 1.375 -27.4375 C 1.6875 -27.988281 2.085938 -28.453125 2.578125 -28.828125 C 3.078125 -29.203125 3.566406 -29.390625 4.046875 -29.390625 C 4.796875 -29.359375 5.441406 -29.039062 5.984375 -28.4375 C 6.523438 -27.84375 6.765625 -27.140625 6.703125 -26.328125 C 6.703125 -25.492188 6.410156 -24.773438 5.828125 -24.171875 C 5.242188 -23.566406 4.515625 -23.265625 3.640625 -23.265625 C 2.890625 -23.242188 2.242188 -23.476562 1.703125 -23.96875 C 1.171875 -24.46875 0.90625 -25.0625 0.90625 -25.75 Z M 0.90625 -25.75 "/></g></g></g><g fill="#ffffff" fill-opacity="1"><g transform="translate(661.45536, 449.804432)"><g><path d="M 11.125 0.1875 C 9.832031 0.1875 8.582031 -0.0859375 7.375 -0.640625 C 6.175781 -1.203125 5.085938 -1.96875 4.109375 -2.9375 C 3.140625 -3.914062 2.367188 -5.015625 1.796875 -6.234375 C 1.234375 -7.453125 0.9375 -8.707031 0.90625 -10 C 0.875 -11.4375 1.171875 -12.859375 1.796875 -14.265625 C 2.429688 -15.679688 3.28125 -16.972656 4.34375 -18.140625 C 5.40625 -19.304688 6.597656 -20.234375 7.921875 -20.921875 C 9.242188 -21.617188 10.59375 -21.953125 11.96875 -21.921875 C 14.039062 -21.890625 15.679688 -21.460938 16.890625 -20.640625 C 18.109375 -19.816406 19.0625 -18.597656 19.75 -16.984375 C 20.445312 -15.378906 20.988281 -13.347656 21.375 -10.890625 C 21.4375 -9.484375 21.191406 -8.117188 20.640625 -6.796875 C 20.085938 -5.472656 19.320312 -4.285156 18.34375 -3.234375 C 17.363281 -2.191406 16.25 -1.359375 15 -0.734375 C 13.757812 -0.117188 12.46875 0.1875 11.125 0.1875 Z M 6.75 -12.921875 C 6.125 -11.742188 5.890625 -10.59375 6.046875 -9.46875 C 6.210938 -8.34375 6.71875 -7.300781 7.5625 -6.34375 C 8.25 -5.625 9.070312 -5.160156 10.03125 -4.953125 C 11 -4.742188 11.898438 -4.816406 12.734375 -5.171875 C 13.753906 -5.597656 14.640625 -6.382812 15.390625 -7.53125 C 16.140625 -8.6875 16.5 -9.925781 16.46875 -11.25 C 16.351562 -11.550781 16.234375 -11.925781 16.109375 -12.375 C 15.992188 -12.820312 15.832031 -13.289062 15.625 -13.78125 C 14.8125 -15.632812 13.738281 -16.671875 12.40625 -16.890625 C 11.070312 -17.117188 9.679688 -16.5 8.234375 -15.03125 C 7.960938 -14.757812 7.695312 -14.441406 7.4375 -14.078125 C 7.1875 -13.722656 6.957031 -13.335938 6.75 -12.921875 Z M 6.75 -12.921875 "/></g></g></g><g fill="#ffffff" fill-opacity="1"><g transform="translate(687.385812, 449.804432)"><g><path d="M 18.140625 2.078125 C 17.296875 1.953125 16.71875 1.617188 16.40625 1.078125 C 16.09375 0.535156 15.90625 -0.125 15.84375 -0.90625 C 15.695312 -2.882812 15.5625 -4.835938 15.4375 -6.765625 C 15.320312 -8.703125 15.144531 -10.632812 14.90625 -12.5625 C 14.84375 -13.039062 14.78125 -13.554688 14.71875 -14.109375 C 14.65625 -14.660156 14.503906 -15.144531 14.265625 -15.5625 C 14.023438 -15.988281 13.609375 -16.21875 13.015625 -16.25 C 12.109375 -16.375 11.203125 -16.25 10.296875 -15.875 C 9.398438 -15.5 8.65625 -14.890625 8.0625 -14.046875 C 7.488281 -13.328125 7.070312 -12.566406 6.8125 -11.765625 C 6.5625 -10.972656 6.5 -10.113281 6.625 -9.1875 C 6.738281 -7.976562 6.816406 -6.773438 6.859375 -5.578125 C 6.910156 -4.378906 6.976562 -3.195312 7.0625 -2.03125 C 7.09375 -1.488281 7.085938 -0.976562 7.046875 -0.5 C 7.003906 -0.0195312 6.769531 0.414062 6.34375 0.8125 C 5.832031 1.351562 5.203125 1.582031 4.453125 1.5 C 3.703125 1.425781 3.148438 1.0625 2.796875 0.40625 C 2.640625 0.0703125 2.53125 -0.28125 2.46875 -0.65625 C 2.414062 -1.03125 2.359375 -1.394531 2.296875 -1.75 C 2.054688 -4.664062 1.820312 -7.5625 1.59375 -10.4375 C 1.375 -13.320312 1.160156 -16.207031 0.953125 -19.09375 C 0.921875 -19.476562 0.910156 -19.875 0.921875 -20.28125 C 0.941406 -20.6875 0.960938 -21.066406 0.984375 -21.421875 C 1.140625 -22.597656 1.816406 -23.226562 3.015625 -23.3125 C 4.097656 -23.46875 4.910156 -23.035156 5.453125 -22.015625 C 5.691406 -21.617188 5.820312 -21.203125 5.84375 -20.765625 C 5.875 -20.335938 6.132812 -19.957031 6.625 -19.625 C 7.375 -19.863281 8.125 -20.117188 8.875 -20.390625 C 9.625 -20.660156 10.375 -20.898438 11.125 -21.109375 C 12.945312 -21.648438 14.476562 -21.613281 15.71875 -21 C 16.96875 -20.382812 17.96875 -19.207031 18.71875 -17.46875 C 19.082031 -16.625 19.347656 -15.726562 19.515625 -14.78125 C 19.679688 -13.84375 19.835938 -12.890625 19.984375 -11.921875 C 20.285156 -10.128906 20.457031 -8.320312 20.5 -6.5 C 20.550781 -4.6875 20.578125 -2.863281 20.578125 -1.03125 C 20.546875 -0.0078125 20.3125 0.773438 19.875 1.328125 C 19.4375 1.878906 18.859375 2.128906 18.140625 2.078125 Z M 18.140625 2.078125 "/></g></g></g><g fill="#ffffff" fill-opacity="1"><g transform="translate(712.508279, 449.804432)"><g/></g></g><g fill="#052d62" fill-opacity="1"><g transform="translate(215.730705, 393.46626)"><g><path d="M 1.90625 -91.75 L 26.625 -91.75 L 52.484375 -43.453125 L 52.484375 -79.859375 C 52.484375 -82.273438 52.195312 -84.625 51.625 -86.90625 C 51.050781 -89.1875 50.226562 -90.800781 49.15625 -91.75 L 77.203125 -91.75 C 76.128906 -90.800781 75.304688 -89.203125 74.734375 -86.953125 C 74.160156 -84.703125 73.875 -82.367188 73.875 -79.953125 L 73.875 -11.796875 C 73.875 -9.441406 74.160156 -7.125 74.734375 -4.84375 C 75.304688 -2.5625 76.128906 -0.945312 77.203125 0 L 52.484375 0 L 26.625 -48.296875 L 26.625 -11.890625 C 26.625 -9.535156 26.90625 -7.203125 27.46875 -4.890625 C 28.039062 -2.578125 28.867188 -0.945312 29.953125 0 L 1.90625 0 C 2.976562 -0.945312 3.800781 -2.5625 4.375 -4.84375 C 4.945312 -7.125 5.234375 -9.441406 5.234375 -11.796875 L 5.234375 -79.953125 C 5.234375 -82.367188 4.945312 -84.703125 4.375 -86.953125 C 3.800781 -89.203125 2.976562 -90.800781 1.90625 -91.75 Z M 1.90625 -91.75 "/></g></g></g><g fill="#052d62" fill-opacity="1"><g transform="translate(297.111001, 393.46626)"><g><path d="M 35.078125 1.421875 C 28.679688 1.421875 23.054688 -0.015625 18.203125 -2.890625 C 13.359375 -5.773438 9.585938 -9.832031 6.890625 -15.0625 C 4.203125 -20.289062 2.859375 -26.363281 2.859375 -33.28125 C 2.859375 -40.25 4.203125 -46.332031 6.890625 -51.53125 C 9.585938 -56.726562 13.359375 -60.769531 18.203125 -63.65625 C 23.054688 -66.539062 28.679688 -67.984375 35.078125 -67.984375 C 41.546875 -67.984375 47.203125 -66.539062 52.046875 -63.65625 C 56.898438 -60.769531 60.671875 -56.726562 63.359375 -51.53125 C 66.054688 -46.332031 67.40625 -40.25 67.40625 -33.28125 C 67.40625 -26.363281 66.054688 -20.289062 63.359375 -15.0625 C 60.671875 -9.832031 56.898438 -5.773438 52.046875 -2.890625 C 47.203125 -0.015625 41.546875 1.421875 35.078125 1.421875 Z M 22.8125 -33.1875 C 22.8125 -28.175781 23.90625 -24.148438 26.09375 -21.109375 C 28.28125 -18.066406 31.273438 -16.546875 35.078125 -16.546875 C 38.878906 -16.546875 41.890625 -18.066406 44.109375 -21.109375 C 46.328125 -24.148438 47.4375 -28.175781 47.4375 -33.1875 C 47.4375 -38.25 46.328125 -42.300781 44.109375 -45.34375 C 41.890625 -48.394531 38.878906 -49.921875 35.078125 -49.921875 C 31.273438 -49.921875 28.28125 -48.394531 26.09375 -45.34375 C 23.90625 -42.300781 22.8125 -38.25 22.8125 -33.1875 Z M 22.8125 -33.1875 "/></g></g></g><g fill="#052d62" fill-opacity="1"><g transform="translate(369.649772, 393.46626)"><g><path d="M -3.796875 -57.328125 C -1.453125 -57.453125 1.0625 -57.878906 3.75 -58.609375 C 6.445312 -59.335938 9.109375 -60.253906 11.734375 -61.359375 C 14.367188 -62.472656 16.84375 -63.617188 19.15625 -64.796875 C 21.46875 -65.972656 23.414062 -67.035156 25 -67.984375 L 25 -11.890625 C 25 -9.535156 25.285156 -7.203125 25.859375 -4.890625 C 26.429688 -2.578125 27.253906 -0.945312 28.328125 0 L 2.1875 0 C 3.257812 -0.945312 4.082031 -2.5625 4.65625 -4.84375 C 5.226562 -7.125 5.515625 -9.441406 5.515625 -11.796875 L 5.515625 -43.265625 C 5.515625 -43.960938 5.453125 -45.039062 5.328125 -46.5 C 5.203125 -47.957031 4.851562 -49.476562 4.28125 -51.0625 C 3.707031 -52.644531 2.785156 -54.003906 1.515625 -55.140625 C 0.253906 -56.285156 -1.515625 -56.859375 -3.796875 -56.859375 Z M 15.59375 -72.546875 C 13.25 -72.546875 11.125 -73.113281 9.21875 -74.25 C 7.320312 -75.394531 5.800781 -76.929688 4.65625 -78.859375 C 3.519531 -80.796875 2.953125 -82.90625 2.953125 -85.1875 C 2.953125 -87.53125 3.519531 -89.664062 4.65625 -91.59375 C 5.800781 -93.53125 7.320312 -95.070312 9.21875 -96.21875 C 11.125 -97.363281 13.25 -97.9375 15.59375 -97.9375 C 17.9375 -97.9375 20.070312 -97.363281 22 -96.21875 C 23.9375 -95.070312 25.472656 -93.53125 26.609375 -91.59375 C 27.753906 -89.664062 28.328125 -87.53125 28.328125 -85.1875 C 28.328125 -82.90625 27.753906 -80.796875 26.609375 -78.859375 C 25.472656 -76.929688 23.9375 -75.394531 22 -74.25 C 20.070312 -73.113281 17.9375 -72.546875 15.59375 -72.546875 Z M 15.59375 -72.546875 "/></g></g></g><g fill="#052d62" fill-opacity="1"><g transform="translate(402.164058, 393.46626)"><g><path d="M -3.796875 -57.328125 C -1.453125 -57.453125 1.0625 -57.878906 3.75 -58.609375 C 6.445312 -59.335938 9.109375 -60.253906 11.734375 -61.359375 C 14.367188 -62.472656 16.84375 -63.617188 19.15625 -64.796875 C 21.46875 -65.972656 23.414062 -67.035156 25 -67.984375 L 25 -11.890625 C 25 -9.535156 25.285156 -7.203125 25.859375 -4.890625 C 26.429688 -2.578125 27.253906 -0.945312 28.328125 0 L 2.1875 0 C 3.257812 -0.945312 4.082031 -2.5625 4.65625 -4.84375 C 5.226562 -7.125 5.515625 -9.441406 5.515625 -11.796875 L 5.515625 -43.265625 C 5.515625 -43.960938 5.453125 -45.039062 5.328125 -46.5 C 5.203125 -47.957031 4.851562 -49.476562 4.28125 -51.0625 C 3.707031 -52.644531 2.785156 -54.003906 1.515625 -55.140625 C 0.253906 -56.285156 -1.515625 -56.859375 -3.796875 -56.859375 Z M 15.59375 -72.546875 C 13.25 -72.546875 11.125 -73.113281 9.21875 -74.25 C 7.320312 -75.394531 5.800781 -76.929688 4.65625 -78.859375 C 3.519531 -80.796875 2.953125 -82.90625 2.953125 -85.1875 C 2.953125 -87.53125 3.519531 -89.664062 4.65625 -91.59375 C 5.800781 -93.53125 7.320312 -95.070312 9.21875 -96.21875 C 11.125 -97.363281 13.25 -97.9375 15.59375 -97.9375 C 17.9375 -97.9375 20.070312 -97.363281 22 -96.21875 C 23.9375 -95.070312 25.472656 -93.53125 26.609375 -91.59375 C 27.753906 -89.664062 28.328125 -87.53125 28.328125 -85.1875 C 28.328125 -82.90625 27.753906 -80.796875 26.609375 -78.859375 C 25.472656 -76.929688 23.9375 -75.394531 22 -74.25 C 20.070312 -73.113281 17.9375 -72.546875 15.59375 -72.546875 Z M 15.59375 -72.546875 "/></g></g></g><g fill="#052d62" fill-opacity="1"><g transform="translate(434.67833, 393.46626)"><g><path d="M 35.75 1.421875 C 30.164062 1.421875 25.296875 0.503906 21.140625 -1.328125 C 16.992188 -3.171875 13.570312 -5.691406 10.875 -8.890625 C 8.1875 -12.085938 6.175781 -15.773438 4.84375 -19.953125 C 3.519531 -24.140625 2.859375 -28.582031 2.859375 -33.28125 C 2.859375 -37.96875 3.550781 -42.398438 4.9375 -46.578125 C 6.332031 -50.765625 8.441406 -54.457031 11.265625 -57.65625 C 14.085938 -60.863281 17.601562 -63.382812 21.8125 -65.21875 C 26.03125 -67.0625 30.992188 -67.984375 36.703125 -67.984375 C 41.515625 -67.984375 45.726562 -66.984375 49.34375 -64.984375 C 52.957031 -62.984375 55.757812 -60.414062 57.75 -57.28125 C 59.75 -54.144531 60.75 -50.898438 60.75 -47.546875 C 60.75 -44.367188 59.910156 -41.289062 58.234375 -38.3125 C 56.554688 -35.332031 53.800781 -32.90625 49.96875 -31.03125 C 46.132812 -29.164062 40.953125 -28.234375 34.421875 -28.234375 L 23.296875 -28.234375 C 24.054688 -24.878906 25.578125 -22.25 27.859375 -20.34375 C 30.140625 -18.445312 33.054688 -17.5 36.609375 -17.5 C 38.953125 -17.5 40.960938 -17.972656 42.640625 -18.921875 C 44.316406 -19.867188 45.707031 -20.960938 46.8125 -22.203125 C 47.925781 -23.441406 48.707031 -24.472656 49.15625 -25.296875 C 50.738281 -22.816406 52.609375 -20.421875 54.765625 -18.109375 C 56.921875 -15.796875 58.976562 -13.753906 60.9375 -11.984375 C 58.15625 -7.546875 54.5 -4.203125 49.96875 -1.953125 C 45.4375 0.296875 40.695312 1.421875 35.75 1.421875 Z M 23.109375 -29.28125 C 26.148438 -29.851562 29.09375 -30.851562 31.9375 -32.28125 C 34.789062 -33.707031 37.148438 -35.5 39.015625 -37.65625 C 40.890625 -39.8125 41.828125 -42.25 41.828125 -44.96875 C 41.828125 -46.238281 41.382812 -47.472656 40.5 -48.671875 C 39.613281 -49.878906 38.15625 -50.484375 36.125 -50.484375 C 34.289062 -50.484375 32.34375 -49.832031 30.28125 -48.53125 C 28.21875 -47.238281 26.457031 -45.304688 25 -42.734375 C 23.539062 -40.171875 22.8125 -37.019531 22.8125 -33.28125 C 22.8125 -31.882812 22.910156 -30.550781 23.109375 -29.28125 Z M 23.109375 -29.28125 "/></g></g></g><g fill="#052d62" fill-opacity="1"><g transform="translate(499.801635, 393.46626)"><g><path d="M 0 -48.484375 L 0 -66.5625 C 1.769531 -67.320312 3.78125 -68.394531 6.03125 -69.78125 C 8.28125 -71.175781 10.578125 -72.789062 12.921875 -74.625 C 15.273438 -76.46875 17.460938 -78.390625 19.484375 -80.390625 C 21.515625 -82.390625 23.195312 -84.335938 24.53125 -86.234375 L 25 -86.234375 L 25 -66.5625 L 39.359375 -66.5625 L 39.359375 -48.484375 L 25 -48.484375 L 25 -26.90625 C 25 -22.59375 25.632812 -19.707031 26.90625 -18.25 C 28.175781 -16.789062 29.984375 -16.0625 32.328125 -16.0625 C 33.785156 -16.0625 35.082031 -16.347656 36.21875 -16.921875 C 37.363281 -17.492188 38.378906 -18.285156 39.265625 -19.296875 C 39.585938 -16.441406 40.09375 -13.679688 40.78125 -11.015625 C 41.476562 -8.359375 42.082031 -5.953125 42.59375 -3.796875 C 41.007812 -2.273438 38.789062 -1.023438 35.9375 -0.046875 C 33.082031 0.929688 30.132812 1.421875 27.09375 1.421875 C 20 1.421875 14.644531 -0.664062 11.03125 -4.84375 C 7.414062 -9.03125 5.609375 -14.957031 5.609375 -22.625 L 5.609375 -48.484375 Z M 0 -48.484375 "/></g></g></g></svg>